<svg xmlns="http://www.w3.org/2000/svg" xmlns:xlink="http://www.w3.org/1999/xlink" xmlns:inkscape="http://www.inkscape.org/namespaces/inkscape" version="1.1" width="585.831" height="210.779" viewBox="0 0 585.831 210.779">
<defs>
<clipPath id="clip_0">
<path transform="matrix(1,0,0,-1,0,210.779)" d="M0 210.779H585.831V0H0Z"/>
</clipPath>
</defs>
<g inkscape:groupmode="layer" inkscape:label="svg8">
<g clip-path="url(#clip_0)">
<path transform="matrix(1,0,0,-1,154.875,97.51741)" d="M0 0C-4.329 0-7.853-3.524-7.853-7.853-7.853-12.182-4.329-15.702 0-15.702 4.329-15.702 7.853-12.182 7.853-7.853 7.853-3.524 4.329 0 0 0" fill="#326ce5"/>
<path transform="matrix(1,0,0,-1,112.9512,3.1317139)" d="M0 0C-4.176 4.176-10.946 4.176-15.122 0L-109.817-94.695C-113.996-98.871-113.996-105.645-109.817-109.82L-15.122-204.516C-10.946-208.691-4.176-208.691 0-204.516L94.695-109.82C98.871-105.645 98.871-98.871 94.695-94.695ZM41.924-119.903C35.67-119.903 30.187-116.646 27.047-111.739 24.499-117.927 21.968-125.006 20.046-130.388 12.949-150.255 8.032-163.181 1.556-167.576-1.65-170.857-6.121-172.903-11.076-172.903-20.83-172.903-28.741-164.993-28.741-155.235-28.741-148.981-25.482-143.499-20.576-140.358-26.764-137.811-33.843-135.279-39.225-133.357-59.092-126.261-72.018-121.344-76.41-114.867-79.694-111.661-81.737-107.191-81.737-102.239-81.737-92.482-73.83-84.571-64.073-84.571-57.819-84.571-52.335-87.83-49.196-92.736-46.647-86.548-44.117-79.469-42.195-74.087-35.098-54.22-30.181-41.294-23.705-36.902-20.499-33.618-16.028-31.575-11.076-31.575-1.319-31.575 6.592-39.482 6.592-49.239 6.592-55.493 3.333-60.976-1.573-64.116 4.615-66.665 11.694-69.195 17.076-71.117 36.943-78.214 49.869-83.131 54.264-89.607 57.545-92.813 59.591-97.284 59.591-102.239 59.591-111.993 51.681-119.903 41.924-119.903" fill="#326ce5"/>
<path transform="matrix(1,0,0,-1,48.8784,97.51741)" d="M0 0C-4.329 0-7.853-3.524-7.853-7.853-7.853-12.182-4.329-15.702 0-15.702 4.329-15.702 7.853-12.182 7.853-7.853 7.853-3.524 4.329 0 0 0" fill="#326ce5"/>
<path transform="matrix(1,0,0,-1,101.8765,150.5155)" d="M0 0C-4.329 0-7.853-3.521-7.853-7.853-7.853-12.182-4.329-15.702 0-15.702 4.329-15.702 7.853-12.182 7.853-7.853 7.853-3.521 4.329 0 0 0" fill="#326ce5"/>
<path transform="matrix(1,0,0,-1,89.5381,65.0018)" d="M0 0C-.961 .941-1.81 1.991-2.537 3.128-5.088-3.059-7.616-10.138-9.538-15.518-16.634-35.387-21.552-48.31-28.028-52.705-28.969-53.669-30.019-54.515-31.156-55.245-24.972-57.793-17.893-60.324-12.51-62.246 7.356-69.34 20.282-74.26 24.677-80.736 25.638-81.674 26.487-82.725 27.214-83.861 29.765-77.677 32.293-70.598 34.215-65.216 41.312-45.349 46.229-32.423 52.705-28.028 53.646-27.067 54.696-26.218 55.833-25.491 49.649-22.943 42.57-20.412 37.188-18.49 17.321-11.394 4.395-6.476 0 0" fill="#326ce5"/>
<path transform="matrix(1,0,0,-1,101.8765,60.222505)" d="M0 0C4.329 0 7.853 3.523 7.853 7.853 7.853 12.181 4.329 15.702 0 15.702-4.329 15.702-7.853 12.181-7.853 7.853-7.853 3.523-4.329 0 0 0" fill="#326ce5"/>
<path transform="matrix(1,0,0,-1,259.5928,124.257709)" d="M0 0C-.528 .527-.906 1.229-1.143 2.104-1.376 2.983-1.492 4.095-1.492 5.442V60.298L-9.656 58.892V4.126C-9.656-.205-8.6-3.397-6.493-5.443-4.389-7.492-.819-8.574 4.214-8.689L5.354-1.845C4.066-1.668 2.984-1.449 2.107-1.187 1.229-.921 .528-.528 0 0" fill="#326ce5"/>
<path transform="matrix(1,0,0,-1,292.3306,85.290409)" d="M0 0C-2.632 0-5.209-.497-7.723-1.489-10.242-2.485-12.464-3.98-14.395-5.965-16.326-7.957-17.875-10.458-19.047-13.472-20.219-16.487-20.802-20.008-20.802-24.048-20.802-27.5-20.349-30.674-19.442-33.572-18.536-36.466-17.146-38.968-15.272-41.076-13.399-43.182-11.016-44.835-8.118-46.033-5.221-47.234-1.787-47.833 2.196-47.833 5.353-47.833 8.175-47.54 10.664-46.954 13.151-46.371 14.891-45.814 15.886-45.289L14.747-38.44C13.749-38.911 12.274-39.393 10.314-39.889 8.352-40.388 5.939-40.636 3.074-40.636-2.018-40.636-5.763-39.407-8.162-36.949-10.563-34.493-11.937-30.894-12.289-26.152H18.96C19.015-25.685 19.046-25.174 19.046-24.617V-23.257C19.046-15.419 17.408-9.582 14.132-5.746 10.854-1.917 6.144 0 0 0M-12.112-19.572C-11.937-17.991-11.573-16.441-11.016-14.92-10.458-13.396-9.686-12.055-8.689-10.88-7.694-9.711-6.482-8.762-5.048-8.029-3.613-7.299-1.96-6.932-.087-6.932 3.247-6.932 5.864-8.115 7.769-10.487 9.667-12.857 10.591-15.887 10.534-19.572Z" fill="#326ce5"/>
<path transform="matrix(1,0,0,-1,351.6191,90.16151)" d="M0 0C-1.376 1.553-3.191 2.753-5.442 3.602-7.696 4.45-10.461 4.872-13.736 4.872-16.605 4.872-19.266 4.655-21.725 4.213-24.181 3.775-25.936 3.322-26.988 2.854L-26.024-3.905C-25.029-3.495-23.522-3.102-21.503-2.718-19.485-2.34-17.131-2.15-14.438-2.15-12.331-2.15-10.62-2.456-9.304-3.07-7.988-3.685-6.949-4.505-6.187-5.529-5.428-6.554-4.9-7.723-4.608-9.039-4.317-10.354-4.17-11.685-4.17-13.033V-15.315C-4.403-15.258-4.813-15.168-5.399-15.05-5.982-14.935-6.672-14.802-7.46-14.657-8.25-14.51-9.085-14.395-9.962-14.305-10.839-14.216-11.688-14.175-12.507-14.175-15.084-14.175-17.54-14.435-19.881-14.963-22.221-15.492-24.268-16.311-26.024-17.422-27.779-18.534-29.17-19.997-30.195-21.809-31.22-23.624-31.73-25.789-31.73-28.305-31.73-30.937-31.289-33.191-30.411-35.064-29.534-36.937-28.305-38.443-26.726-39.583-25.147-40.726-23.274-41.557-21.11-42.085-18.945-42.61-16.573-42.875-13.999-42.875-12.187-42.875-10.357-42.8-8.513-42.657-6.672-42.509-4.958-42.348-3.379-42.171-1.801-41.996-.384-41.808 .878-41.603 2.136-41.395 3.114-41.24 3.818-41.122V-12.594C3.818-10.02 3.524-7.665 2.941-5.529 2.355-3.391 1.374-1.55 0 0M-4.17-35.413C-5.165-35.65-6.406-35.811-7.898-35.898-9.394-35.984-11.102-36.028-13.035-36.028-16.253-36.028-18.799-35.459-20.671-34.316-22.544-33.176-23.479-31.145-23.479-28.218-23.479-26.637-23.099-25.364-22.337-24.4-21.577-23.433-20.625-22.674-19.485-22.118-18.346-21.56-17.087-21.194-15.711-21.021-14.337-20.845-13.035-20.755-11.806-20.755-9.933-20.755-8.337-20.859-7.021-21.061-5.705-21.269-4.756-21.52-4.17-21.809Z" fill="#326ce5"/>
<path transform="matrix(1,0,0,-1,390.8955,85.94661)" d="M0 0C-.88 .144-1.771 .263-2.678 .349-3.584 .438-4.389 .482-5.094 .482-8.66 .482-11.878 .176-14.747-.439-17.615-1.054-20.014-1.711-21.944-2.416V-46.123H-13.78V-7.766C-13.313-7.651-12.331-7.431-10.842-7.111-9.347-6.791-7.844-6.626-6.319-6.626-3.982-6.626-2.063-6.791-.571-7.111 .921-7.431 1.985-7.711 2.632-7.945L4.035-.834C3.686-.719 3.143-.586 2.413-.439 1.68-.294 .878-.147 0 0" fill="#326ce5"/>
<path transform="matrix(1,0,0,-1,435.7881,91.30111)" d="M0 0C-1.435 1.844-3.351 3.278-5.749 4.3-8.146 5.324-11.16 5.835-14.79 5.835-18.825 5.835-22.397 5.575-25.497 5.047-28.6 4.519-31.084 4.023-32.957 3.552V-40.769H-24.796V-2.237C-24.501-2.182-24.02-2.092-23.347-1.977-22.675-1.859-21.916-1.755-21.064-1.668-20.219-1.579-19.324-1.507-18.386-1.449-17.454-1.388-16.542-1.362-15.668-1.362-13.503-1.362-11.688-1.637-10.225-2.193-8.762-2.75-7.593-3.642-6.713-4.869-5.835-6.098-5.209-7.711-4.828-9.697-4.447-11.688-4.257-14.086-4.257-16.894V-40.769H3.907V-15.139C3.907-12.04 3.613-9.201 3.03-6.626 2.444-4.052 1.435-1.844 0 0" fill="#326ce5"/>
<path transform="matrix(1,0,0,-1,487.6162,118.619)" d="M0 0C-1.755 2.344-3.57 4.618-5.443 6.813-7.316 9.01-9.128 10.9-10.883 12.484-7.374 15.931-4.142 19.272-1.184 22.513 1.769 25.751 4.796 29.154 7.898 32.715H-7.65C-8.471 31.725-9.448 30.562-10.589 29.226-11.729 27.887-12.94 26.479-14.228 24.992-15.515 23.509-16.845 22.011-18.216 20.502-19.59 18.987-20.92 17.532-22.204 16.138V54.656L-35.286 52.553V-13.451H-22.204V6.785C-20.747 5.607-19.272 4.173-17.783 2.471-16.294 .773-14.877-1.004-13.532-2.848-12.19-4.698-10.918-6.545-9.723-8.392-8.525-10.242-7.46-11.927-6.525-13.451H8.514C7.518-11.518 6.291-9.379 4.828-7.035 3.365-4.689 1.755-2.343 0 0" fill="#326ce5"/>
<path transform="matrix(1,0,0,-1,534.2207,99.98961)" d="M0 0C2.225 1.399 4.081 3.316 5.575 5.74 7.067 8.164 7.812 10.779 7.812 13.584 7.812 15.515 7.445 17.457 6.716 19.411 5.985 21.367 4.797 23.136 3.16 24.712 1.523 26.291-.568 27.589-3.117 28.614-5.662 29.635-8.718 30.149-12.288 30.149-15.33 30.149-18.095 29.664-20.582 28.7-23.07 27.736-25.188 26.452-26.945 24.845-28.7 23.24-30.062 21.353-31.026 19.191-31.993 17.03-32.475 14.782-32.475 12.441-32.475 9.347-31.875 6.805-30.677 4.819-29.477 2.831-27.618 .814-25.102-1.229-26.273-2.11-27.37-3.047-28.395-4.043-29.416-5.036-30.337-6.135-31.159-7.336-31.979-8.54-32.619-9.873-33.09-11.335-33.558-12.802-33.791-14.413-33.791-16.172-33.791-17.873-33.441-19.731-32.734-21.751-32.033-23.771-30.851-25.632-29.183-27.333-27.514-29.035-25.321-30.455-22.6-31.595-19.878-32.738-16.473-33.309-12.375-33.309-8.805-33.309-5.662-32.853-2.938-31.947-.22-31.041 2.049-29.765 3.861-28.124 5.677-26.484 7.036-24.565 7.945-22.369 8.852-20.169 9.305-17.751 9.305-15.117 9.305-11.954 8.589-9.186 7.154-6.811 5.72-4.438 3.339-2.167 0 0M-19.307 15.237C-19.018 15.997-18.562 16.712-17.947 17.382-17.336 18.054-16.56 18.594-15.621 19.003-14.689 19.411-13.575 19.615-12.288 19.615-10.943 19.615-9.801 19.399-8.862 18.958-7.931 18.521-7.151 17.979-6.536 17.341-5.922 16.698-5.483 16.014-5.221 15.284-4.958 14.554-4.828 13.87-4.828 13.226-4.828 11.007-5.321 9.143-6.317 7.625-7.315 6.106-8.747 4.765-10.617 3.599-13.956 4.765-16.312 6.167-17.685 7.801-19.059 9.431-19.745 11.183-19.745 13.05-19.745 13.751-19.604 14.479-19.307 15.237M-5.616-20.577C-7.019-22.045-9.246-22.779-12.288-22.779-13.867-22.779-15.212-22.544-16.325-22.075-17.437-21.604-18.343-21.015-19.044-20.314-19.745-19.61-20.259-18.833-20.582-17.985-20.902-17.133-21.064-16.354-21.064-15.65-21.064-13.362-20.507-11.396-19.396-9.754-18.285-8.113-16.908-6.675-15.272-5.443-13.633-5.968-12.098-6.542-10.663-7.16-9.229-7.775-7.985-8.479-6.932-9.27-5.882-10.06-5.048-10.987-4.433-12.042-3.818-13.096-3.512-14.299-3.512-15.65-3.512-17.468-4.213-19.111-5.616-20.577" fill="#326ce5"/>
<path transform="matrix(1,0,0,-1,585.1729,114.382709)" d="M0 0C-.438 1.46-1.2 2.787-2.283 3.985-3.365 5.18-4.843 6.297-6.716 7.327-8.589 8.357-10.958 9.408-13.823 10.47-15.229 11-16.386 11.485-17.289 11.93-18.201 12.372-18.917 12.784-19.439 13.165-19.968 13.543-20.319 13.938-20.496 14.348-20.669 14.755-20.759 15.226-20.759 15.754-20.759 18.034-18.709 19.176-14.614 19.176-12.393 19.176-10.39 18.969-8.6 18.562-6.816 18.152-5.166 17.685-3.645 17.156L-1.362 27.341C-2.883 27.924-4.932 28.463-7.506 28.962-10.08 29.459-12.773 29.707-15.578 29.707-21.197 29.707-25.615 28.449-28.833 25.932-32.051 23.416-33.661 19.996-33.661 15.667-33.661 13.439-33.341 11.541-32.694 9.959-32.051 8.38-31.145 7.021-29.976 5.878-28.805 4.738-27.385 3.757-25.717 2.94-24.048 2.118-22.192 1.327-20.144 .568-17.509-.425-15.552-1.319-14.262-2.107-12.975-2.897-12.331-3.818-12.331-4.872-12.331-6.22-12.828-7.129-13.823-7.596-14.822-8.063-16.516-8.297-18.917-8.297-21.197-8.297-23.509-8.049-25.849-7.55-28.192-7.054-30.473-6.364-32.694-5.486L-34.891-16.106C-33.837-16.577-31.947-17.16-29.229-17.861-26.507-18.565-23.099-18.917-19.004-18.917-12.741-18.917-7.898-17.746-4.477-15.414-1.054-13.076 .658-9.634 .658-5.079 .658-3.154 .438-1.461 0 0" fill="#326ce5"/>
</g>
</g>
</svg>
